%TF.GenerationSoftware,KiCad,Pcbnew,9.0.0*%
%TF.CreationDate,2025-03-29T16:30:24-06:00*%
%TF.ProjectId,USBCRibbonLite,55534243-5269-4626-926f-6e4c6974652e,rev?*%
%TF.SameCoordinates,Original*%
%TF.FileFunction,Drillmap*%
%TF.FilePolarity,Positive*%
%FSLAX45Y45*%
G04 Gerber Fmt 4.5, Leading zero omitted, Abs format (unit mm)*
G04 Created by KiCad (PCBNEW 9.0.0) date 2025-03-29 16:30:24*
%MOMM*%
%LPD*%
G01*
G04 APERTURE LIST*
%ADD10C,0.050000*%
%ADD11C,0.200000*%
%ADD12C,0.100000*%
G04 APERTURE END LIST*
D10*
X8190900Y-11319000D02*
G75*
G02*
X8230905Y-11356877I-7400J-47880D01*
G01*
X7675992Y-12085000D02*
X7598400Y-12085000D01*
X7715992Y-12047122D02*
G75*
G02*
X7675992Y-12084997I-47402J10002D01*
G01*
X7880900Y-11944000D02*
X7715992Y-11944000D01*
X7560900Y-12045092D02*
X7561003Y-11865000D01*
X7599078Y-12085092D02*
G75*
G02*
X7560899Y-12045092I10092J47852D01*
G01*
X6880900Y-11356878D02*
G75*
G02*
X6920901Y-11319005I47400J-10002D01*
G01*
X7521000Y-11827000D02*
X6918837Y-11827000D01*
X8190900Y-11786000D02*
X8000922Y-11786122D01*
X7960900Y-11906000D02*
G75*
G02*
X7920900Y-11944002I-47590J10040D01*
G01*
X6918900Y-11827000D02*
G75*
G02*
X6881025Y-11786999I10000J47400D01*
G01*
X7960900Y-11824000D02*
G75*
G02*
X8000900Y-11786125I47400J-10000D01*
G01*
X7960900Y-11906000D02*
X7960900Y-11824000D01*
X6880900Y-11786139D02*
X6880900Y-11356770D01*
X7715992Y-12047121D02*
X7715992Y-11944000D01*
X8230900Y-11356878D02*
X8230900Y-11748122D01*
X6920900Y-11319000D02*
X8190899Y-11319000D01*
X7521000Y-11827000D02*
G75*
G02*
X7560998Y-11865000I-7590J-48040D01*
G01*
X8230900Y-11748122D02*
G75*
G02*
X8190900Y-11786003I-47410J10002D01*
G01*
X7880900Y-11944000D02*
X7920039Y-11944000D01*
D11*
D12*
X7200900Y-11589000D02*
X7260900Y-11649000D01*
X7260900Y-11589000D02*
X7200900Y-11649000D01*
X7260900Y-11649000D02*
X7260900Y-11589000D01*
X7200900Y-11589000D02*
G75*
G02*
X7260900Y-11589000I30000J0D01*
G01*
X7200900Y-11589000D02*
X7200900Y-11649000D01*
X7200900Y-11649000D02*
G75*
G03*
X7260900Y-11649000I30000J0D01*
G01*
X8064900Y-11589000D02*
X8124900Y-11649000D01*
X8124900Y-11589000D02*
X8064900Y-11649000D01*
X8124900Y-11649000D02*
X8124900Y-11589000D01*
X8064900Y-11589000D02*
G75*
G02*
X8124900Y-11589000I30000J0D01*
G01*
X8064900Y-11589000D02*
X8064900Y-11649000D01*
X8064900Y-11649000D02*
G75*
G03*
X8124900Y-11649000I30000J0D01*
G01*
D11*
X7139177Y-12399076D02*
X7139177Y-12199076D01*
X7139177Y-12199076D02*
X7186796Y-12199076D01*
X7186796Y-12199076D02*
X7215367Y-12208600D01*
X7215367Y-12208600D02*
X7234415Y-12227647D01*
X7234415Y-12227647D02*
X7243939Y-12246695D01*
X7243939Y-12246695D02*
X7253462Y-12284790D01*
X7253462Y-12284790D02*
X7253462Y-12313362D01*
X7253462Y-12313362D02*
X7243939Y-12351457D01*
X7243939Y-12351457D02*
X7234415Y-12370505D01*
X7234415Y-12370505D02*
X7215367Y-12389552D01*
X7215367Y-12389552D02*
X7186796Y-12399076D01*
X7186796Y-12399076D02*
X7139177Y-12399076D01*
X7339177Y-12399076D02*
X7339177Y-12265743D01*
X7339177Y-12303838D02*
X7348701Y-12284790D01*
X7348701Y-12284790D02*
X7358224Y-12275266D01*
X7358224Y-12275266D02*
X7377272Y-12265743D01*
X7377272Y-12265743D02*
X7396320Y-12265743D01*
X7462986Y-12399076D02*
X7462986Y-12265743D01*
X7462986Y-12199076D02*
X7453462Y-12208600D01*
X7453462Y-12208600D02*
X7462986Y-12218124D01*
X7462986Y-12218124D02*
X7472510Y-12208600D01*
X7472510Y-12208600D02*
X7462986Y-12199076D01*
X7462986Y-12199076D02*
X7462986Y-12218124D01*
X7586796Y-12399076D02*
X7567748Y-12389552D01*
X7567748Y-12389552D02*
X7558224Y-12370505D01*
X7558224Y-12370505D02*
X7558224Y-12199076D01*
X7691558Y-12399076D02*
X7672510Y-12389552D01*
X7672510Y-12389552D02*
X7662986Y-12370505D01*
X7662986Y-12370505D02*
X7662986Y-12199076D01*
X7920129Y-12399076D02*
X7920129Y-12199076D01*
X7920129Y-12199076D02*
X7986796Y-12341933D01*
X7986796Y-12341933D02*
X8053462Y-12199076D01*
X8053462Y-12199076D02*
X8053462Y-12399076D01*
X8234415Y-12399076D02*
X8234415Y-12294314D01*
X8234415Y-12294314D02*
X8224891Y-12275266D01*
X8224891Y-12275266D02*
X8205843Y-12265743D01*
X8205843Y-12265743D02*
X8167748Y-12265743D01*
X8167748Y-12265743D02*
X8148701Y-12275266D01*
X8234415Y-12389552D02*
X8215367Y-12399076D01*
X8215367Y-12399076D02*
X8167748Y-12399076D01*
X8167748Y-12399076D02*
X8148701Y-12389552D01*
X8148701Y-12389552D02*
X8139177Y-12370505D01*
X8139177Y-12370505D02*
X8139177Y-12351457D01*
X8139177Y-12351457D02*
X8148701Y-12332409D01*
X8148701Y-12332409D02*
X8167748Y-12322886D01*
X8167748Y-12322886D02*
X8215367Y-12322886D01*
X8215367Y-12322886D02*
X8234415Y-12313362D01*
X8329653Y-12265743D02*
X8329653Y-12465743D01*
X8329653Y-12275266D02*
X8348701Y-12265743D01*
X8348701Y-12265743D02*
X8386796Y-12265743D01*
X8386796Y-12265743D02*
X8405844Y-12275266D01*
X8405844Y-12275266D02*
X8415367Y-12284790D01*
X8415367Y-12284790D02*
X8424891Y-12303838D01*
X8424891Y-12303838D02*
X8424891Y-12360981D01*
X8424891Y-12360981D02*
X8415367Y-12380028D01*
X8415367Y-12380028D02*
X8405844Y-12389552D01*
X8405844Y-12389552D02*
X8386796Y-12399076D01*
X8386796Y-12399076D02*
X8348701Y-12399076D01*
X8348701Y-12399076D02*
X8329653Y-12389552D01*
X8510605Y-12380028D02*
X8520129Y-12389552D01*
X8520129Y-12389552D02*
X8510605Y-12399076D01*
X8510605Y-12399076D02*
X8501082Y-12389552D01*
X8501082Y-12389552D02*
X8510605Y-12380028D01*
X8510605Y-12380028D02*
X8510605Y-12399076D01*
X8510605Y-12275266D02*
X8520129Y-12284790D01*
X8520129Y-12284790D02*
X8510605Y-12294314D01*
X8510605Y-12294314D02*
X8501082Y-12284790D01*
X8501082Y-12284790D02*
X8510605Y-12275266D01*
X8510605Y-12275266D02*
X8510605Y-12294314D01*
D12*
X6818400Y-12697592D02*
X6878400Y-12757592D01*
X6878400Y-12697592D02*
X6818400Y-12757592D01*
D11*
X7177272Y-12619076D02*
X7196320Y-12619076D01*
X7196320Y-12619076D02*
X7215367Y-12628600D01*
X7215367Y-12628600D02*
X7224891Y-12638124D01*
X7224891Y-12638124D02*
X7234415Y-12657171D01*
X7234415Y-12657171D02*
X7243939Y-12695266D01*
X7243939Y-12695266D02*
X7243939Y-12742886D01*
X7243939Y-12742886D02*
X7234415Y-12780981D01*
X7234415Y-12780981D02*
X7224891Y-12800028D01*
X7224891Y-12800028D02*
X7215367Y-12809552D01*
X7215367Y-12809552D02*
X7196320Y-12819076D01*
X7196320Y-12819076D02*
X7177272Y-12819076D01*
X7177272Y-12819076D02*
X7158224Y-12809552D01*
X7158224Y-12809552D02*
X7148701Y-12800028D01*
X7148701Y-12800028D02*
X7139177Y-12780981D01*
X7139177Y-12780981D02*
X7129653Y-12742886D01*
X7129653Y-12742886D02*
X7129653Y-12695266D01*
X7129653Y-12695266D02*
X7139177Y-12657171D01*
X7139177Y-12657171D02*
X7148701Y-12638124D01*
X7148701Y-12638124D02*
X7158224Y-12628600D01*
X7158224Y-12628600D02*
X7177272Y-12619076D01*
X7329653Y-12800028D02*
X7339177Y-12809552D01*
X7339177Y-12809552D02*
X7329653Y-12819076D01*
X7329653Y-12819076D02*
X7320129Y-12809552D01*
X7320129Y-12809552D02*
X7329653Y-12800028D01*
X7329653Y-12800028D02*
X7329653Y-12819076D01*
X7510605Y-12619076D02*
X7472510Y-12619076D01*
X7472510Y-12619076D02*
X7453462Y-12628600D01*
X7453462Y-12628600D02*
X7443939Y-12638124D01*
X7443939Y-12638124D02*
X7424891Y-12666695D01*
X7424891Y-12666695D02*
X7415367Y-12704790D01*
X7415367Y-12704790D02*
X7415367Y-12780981D01*
X7415367Y-12780981D02*
X7424891Y-12800028D01*
X7424891Y-12800028D02*
X7434415Y-12809552D01*
X7434415Y-12809552D02*
X7453462Y-12819076D01*
X7453462Y-12819076D02*
X7491558Y-12819076D01*
X7491558Y-12819076D02*
X7510605Y-12809552D01*
X7510605Y-12809552D02*
X7520129Y-12800028D01*
X7520129Y-12800028D02*
X7529653Y-12780981D01*
X7529653Y-12780981D02*
X7529653Y-12733362D01*
X7529653Y-12733362D02*
X7520129Y-12714314D01*
X7520129Y-12714314D02*
X7510605Y-12704790D01*
X7510605Y-12704790D02*
X7491558Y-12695266D01*
X7491558Y-12695266D02*
X7453462Y-12695266D01*
X7453462Y-12695266D02*
X7434415Y-12704790D01*
X7434415Y-12704790D02*
X7424891Y-12714314D01*
X7424891Y-12714314D02*
X7415367Y-12733362D01*
X7653462Y-12619076D02*
X7672510Y-12619076D01*
X7672510Y-12619076D02*
X7691558Y-12628600D01*
X7691558Y-12628600D02*
X7701082Y-12638124D01*
X7701082Y-12638124D02*
X7710605Y-12657171D01*
X7710605Y-12657171D02*
X7720129Y-12695266D01*
X7720129Y-12695266D02*
X7720129Y-12742886D01*
X7720129Y-12742886D02*
X7710605Y-12780981D01*
X7710605Y-12780981D02*
X7701082Y-12800028D01*
X7701082Y-12800028D02*
X7691558Y-12809552D01*
X7691558Y-12809552D02*
X7672510Y-12819076D01*
X7672510Y-12819076D02*
X7653462Y-12819076D01*
X7653462Y-12819076D02*
X7634415Y-12809552D01*
X7634415Y-12809552D02*
X7624891Y-12800028D01*
X7624891Y-12800028D02*
X7615367Y-12780981D01*
X7615367Y-12780981D02*
X7605843Y-12742886D01*
X7605843Y-12742886D02*
X7605843Y-12695266D01*
X7605843Y-12695266D02*
X7615367Y-12657171D01*
X7615367Y-12657171D02*
X7624891Y-12638124D01*
X7624891Y-12638124D02*
X7634415Y-12628600D01*
X7634415Y-12628600D02*
X7653462Y-12619076D01*
X7843939Y-12619076D02*
X7862986Y-12619076D01*
X7862986Y-12619076D02*
X7882034Y-12628600D01*
X7882034Y-12628600D02*
X7891558Y-12638124D01*
X7891558Y-12638124D02*
X7901082Y-12657171D01*
X7901082Y-12657171D02*
X7910605Y-12695266D01*
X7910605Y-12695266D02*
X7910605Y-12742886D01*
X7910605Y-12742886D02*
X7901082Y-12780981D01*
X7901082Y-12780981D02*
X7891558Y-12800028D01*
X7891558Y-12800028D02*
X7882034Y-12809552D01*
X7882034Y-12809552D02*
X7862986Y-12819076D01*
X7862986Y-12819076D02*
X7843939Y-12819076D01*
X7843939Y-12819076D02*
X7824891Y-12809552D01*
X7824891Y-12809552D02*
X7815367Y-12800028D01*
X7815367Y-12800028D02*
X7805843Y-12780981D01*
X7805843Y-12780981D02*
X7796320Y-12742886D01*
X7796320Y-12742886D02*
X7796320Y-12695266D01*
X7796320Y-12695266D02*
X7805843Y-12657171D01*
X7805843Y-12657171D02*
X7815367Y-12638124D01*
X7815367Y-12638124D02*
X7824891Y-12628600D01*
X7824891Y-12628600D02*
X7843939Y-12619076D01*
X7996320Y-12819076D02*
X7996320Y-12685743D01*
X7996320Y-12704790D02*
X8005843Y-12695266D01*
X8005843Y-12695266D02*
X8024891Y-12685743D01*
X8024891Y-12685743D02*
X8053463Y-12685743D01*
X8053463Y-12685743D02*
X8072510Y-12695266D01*
X8072510Y-12695266D02*
X8082034Y-12714314D01*
X8082034Y-12714314D02*
X8082034Y-12819076D01*
X8082034Y-12714314D02*
X8091558Y-12695266D01*
X8091558Y-12695266D02*
X8110605Y-12685743D01*
X8110605Y-12685743D02*
X8139177Y-12685743D01*
X8139177Y-12685743D02*
X8158224Y-12695266D01*
X8158224Y-12695266D02*
X8167748Y-12714314D01*
X8167748Y-12714314D02*
X8167748Y-12819076D01*
X8262986Y-12819076D02*
X8262986Y-12685743D01*
X8262986Y-12704790D02*
X8272510Y-12695266D01*
X8272510Y-12695266D02*
X8291558Y-12685743D01*
X8291558Y-12685743D02*
X8320129Y-12685743D01*
X8320129Y-12685743D02*
X8339177Y-12695266D01*
X8339177Y-12695266D02*
X8348701Y-12714314D01*
X8348701Y-12714314D02*
X8348701Y-12819076D01*
X8348701Y-12714314D02*
X8358224Y-12695266D01*
X8358224Y-12695266D02*
X8377272Y-12685743D01*
X8377272Y-12685743D02*
X8405844Y-12685743D01*
X8405844Y-12685743D02*
X8424891Y-12695266D01*
X8424891Y-12695266D02*
X8434415Y-12714314D01*
X8434415Y-12714314D02*
X8434415Y-12819076D01*
X8824891Y-12609552D02*
X8653463Y-12866695D01*
X9082034Y-12619076D02*
X9101082Y-12619076D01*
X9101082Y-12619076D02*
X9120129Y-12628600D01*
X9120129Y-12628600D02*
X9129653Y-12638124D01*
X9129653Y-12638124D02*
X9139177Y-12657171D01*
X9139177Y-12657171D02*
X9148701Y-12695266D01*
X9148701Y-12695266D02*
X9148701Y-12742886D01*
X9148701Y-12742886D02*
X9139177Y-12780981D01*
X9139177Y-12780981D02*
X9129653Y-12800028D01*
X9129653Y-12800028D02*
X9120129Y-12809552D01*
X9120129Y-12809552D02*
X9101082Y-12819076D01*
X9101082Y-12819076D02*
X9082034Y-12819076D01*
X9082034Y-12819076D02*
X9062987Y-12809552D01*
X9062987Y-12809552D02*
X9053463Y-12800028D01*
X9053463Y-12800028D02*
X9043939Y-12780981D01*
X9043939Y-12780981D02*
X9034415Y-12742886D01*
X9034415Y-12742886D02*
X9034415Y-12695266D01*
X9034415Y-12695266D02*
X9043939Y-12657171D01*
X9043939Y-12657171D02*
X9053463Y-12638124D01*
X9053463Y-12638124D02*
X9062987Y-12628600D01*
X9062987Y-12628600D02*
X9082034Y-12619076D01*
X9234415Y-12800028D02*
X9243939Y-12809552D01*
X9243939Y-12809552D02*
X9234415Y-12819076D01*
X9234415Y-12819076D02*
X9224891Y-12809552D01*
X9224891Y-12809552D02*
X9234415Y-12800028D01*
X9234415Y-12800028D02*
X9234415Y-12819076D01*
X9367748Y-12619076D02*
X9386796Y-12619076D01*
X9386796Y-12619076D02*
X9405844Y-12628600D01*
X9405844Y-12628600D02*
X9415368Y-12638124D01*
X9415368Y-12638124D02*
X9424891Y-12657171D01*
X9424891Y-12657171D02*
X9434415Y-12695266D01*
X9434415Y-12695266D02*
X9434415Y-12742886D01*
X9434415Y-12742886D02*
X9424891Y-12780981D01*
X9424891Y-12780981D02*
X9415368Y-12800028D01*
X9415368Y-12800028D02*
X9405844Y-12809552D01*
X9405844Y-12809552D02*
X9386796Y-12819076D01*
X9386796Y-12819076D02*
X9367748Y-12819076D01*
X9367748Y-12819076D02*
X9348701Y-12809552D01*
X9348701Y-12809552D02*
X9339177Y-12800028D01*
X9339177Y-12800028D02*
X9329653Y-12780981D01*
X9329653Y-12780981D02*
X9320129Y-12742886D01*
X9320129Y-12742886D02*
X9320129Y-12695266D01*
X9320129Y-12695266D02*
X9329653Y-12657171D01*
X9329653Y-12657171D02*
X9339177Y-12638124D01*
X9339177Y-12638124D02*
X9348701Y-12628600D01*
X9348701Y-12628600D02*
X9367748Y-12619076D01*
X9510606Y-12638124D02*
X9520129Y-12628600D01*
X9520129Y-12628600D02*
X9539177Y-12619076D01*
X9539177Y-12619076D02*
X9586796Y-12619076D01*
X9586796Y-12619076D02*
X9605844Y-12628600D01*
X9605844Y-12628600D02*
X9615368Y-12638124D01*
X9615368Y-12638124D02*
X9624891Y-12657171D01*
X9624891Y-12657171D02*
X9624891Y-12676219D01*
X9624891Y-12676219D02*
X9615368Y-12704790D01*
X9615368Y-12704790D02*
X9501082Y-12819076D01*
X9501082Y-12819076D02*
X9624891Y-12819076D01*
X9691558Y-12619076D02*
X9815368Y-12619076D01*
X9815368Y-12619076D02*
X9748701Y-12695266D01*
X9748701Y-12695266D02*
X9777272Y-12695266D01*
X9777272Y-12695266D02*
X9796320Y-12704790D01*
X9796320Y-12704790D02*
X9805844Y-12714314D01*
X9805844Y-12714314D02*
X9815368Y-12733362D01*
X9815368Y-12733362D02*
X9815368Y-12780981D01*
X9815368Y-12780981D02*
X9805844Y-12800028D01*
X9805844Y-12800028D02*
X9796320Y-12809552D01*
X9796320Y-12809552D02*
X9777272Y-12819076D01*
X9777272Y-12819076D02*
X9720129Y-12819076D01*
X9720129Y-12819076D02*
X9701082Y-12809552D01*
X9701082Y-12809552D02*
X9691558Y-12800028D01*
X9986796Y-12619076D02*
X9948701Y-12619076D01*
X9948701Y-12619076D02*
X9929653Y-12628600D01*
X9929653Y-12628600D02*
X9920129Y-12638124D01*
X9920129Y-12638124D02*
X9901082Y-12666695D01*
X9901082Y-12666695D02*
X9891558Y-12704790D01*
X9891558Y-12704790D02*
X9891558Y-12780981D01*
X9891558Y-12780981D02*
X9901082Y-12800028D01*
X9901082Y-12800028D02*
X9910606Y-12809552D01*
X9910606Y-12809552D02*
X9929653Y-12819076D01*
X9929653Y-12819076D02*
X9967749Y-12819076D01*
X9967749Y-12819076D02*
X9986796Y-12809552D01*
X9986796Y-12809552D02*
X9996320Y-12800028D01*
X9996320Y-12800028D02*
X10005844Y-12780981D01*
X10005844Y-12780981D02*
X10005844Y-12733362D01*
X10005844Y-12733362D02*
X9996320Y-12714314D01*
X9996320Y-12714314D02*
X9986796Y-12704790D01*
X9986796Y-12704790D02*
X9967749Y-12695266D01*
X9967749Y-12695266D02*
X9929653Y-12695266D01*
X9929653Y-12695266D02*
X9910606Y-12704790D01*
X9910606Y-12704790D02*
X9901082Y-12714314D01*
X9901082Y-12714314D02*
X9891558Y-12733362D01*
X10082034Y-12619076D02*
X10082034Y-12657171D01*
X10158225Y-12619076D02*
X10158225Y-12657171D01*
X10453463Y-12895266D02*
X10443939Y-12885743D01*
X10443939Y-12885743D02*
X10424891Y-12857171D01*
X10424891Y-12857171D02*
X10415368Y-12838124D01*
X10415368Y-12838124D02*
X10405844Y-12809552D01*
X10405844Y-12809552D02*
X10396320Y-12761933D01*
X10396320Y-12761933D02*
X10396320Y-12723838D01*
X10396320Y-12723838D02*
X10405844Y-12676219D01*
X10405844Y-12676219D02*
X10415368Y-12647647D01*
X10415368Y-12647647D02*
X10424891Y-12628600D01*
X10424891Y-12628600D02*
X10443939Y-12600028D01*
X10443939Y-12600028D02*
X10453463Y-12590505D01*
X10567749Y-12619076D02*
X10586796Y-12619076D01*
X10586796Y-12619076D02*
X10605844Y-12628600D01*
X10605844Y-12628600D02*
X10615368Y-12638124D01*
X10615368Y-12638124D02*
X10624891Y-12657171D01*
X10624891Y-12657171D02*
X10634415Y-12695266D01*
X10634415Y-12695266D02*
X10634415Y-12742886D01*
X10634415Y-12742886D02*
X10624891Y-12780981D01*
X10624891Y-12780981D02*
X10615368Y-12800028D01*
X10615368Y-12800028D02*
X10605844Y-12809552D01*
X10605844Y-12809552D02*
X10586796Y-12819076D01*
X10586796Y-12819076D02*
X10567749Y-12819076D01*
X10567749Y-12819076D02*
X10548701Y-12809552D01*
X10548701Y-12809552D02*
X10539177Y-12800028D01*
X10539177Y-12800028D02*
X10529653Y-12780981D01*
X10529653Y-12780981D02*
X10520130Y-12742886D01*
X10520130Y-12742886D02*
X10520130Y-12695266D01*
X10520130Y-12695266D02*
X10529653Y-12657171D01*
X10529653Y-12657171D02*
X10539177Y-12638124D01*
X10539177Y-12638124D02*
X10548701Y-12628600D01*
X10548701Y-12628600D02*
X10567749Y-12619076D01*
X10872511Y-12819076D02*
X10872511Y-12619076D01*
X10958225Y-12819076D02*
X10958225Y-12714314D01*
X10958225Y-12714314D02*
X10948701Y-12695266D01*
X10948701Y-12695266D02*
X10929653Y-12685743D01*
X10929653Y-12685743D02*
X10901082Y-12685743D01*
X10901082Y-12685743D02*
X10882034Y-12695266D01*
X10882034Y-12695266D02*
X10872511Y-12704790D01*
X11082034Y-12819076D02*
X11062987Y-12809552D01*
X11062987Y-12809552D02*
X11053463Y-12800028D01*
X11053463Y-12800028D02*
X11043939Y-12780981D01*
X11043939Y-12780981D02*
X11043939Y-12723838D01*
X11043939Y-12723838D02*
X11053463Y-12704790D01*
X11053463Y-12704790D02*
X11062987Y-12695266D01*
X11062987Y-12695266D02*
X11082034Y-12685743D01*
X11082034Y-12685743D02*
X11110606Y-12685743D01*
X11110606Y-12685743D02*
X11129653Y-12695266D01*
X11129653Y-12695266D02*
X11139177Y-12704790D01*
X11139177Y-12704790D02*
X11148701Y-12723838D01*
X11148701Y-12723838D02*
X11148701Y-12780981D01*
X11148701Y-12780981D02*
X11139177Y-12800028D01*
X11139177Y-12800028D02*
X11129653Y-12809552D01*
X11129653Y-12809552D02*
X11110606Y-12819076D01*
X11110606Y-12819076D02*
X11082034Y-12819076D01*
X11262987Y-12819076D02*
X11243939Y-12809552D01*
X11243939Y-12809552D02*
X11234415Y-12790505D01*
X11234415Y-12790505D02*
X11234415Y-12619076D01*
X11415368Y-12809552D02*
X11396320Y-12819076D01*
X11396320Y-12819076D02*
X11358225Y-12819076D01*
X11358225Y-12819076D02*
X11339177Y-12809552D01*
X11339177Y-12809552D02*
X11329653Y-12790505D01*
X11329653Y-12790505D02*
X11329653Y-12714314D01*
X11329653Y-12714314D02*
X11339177Y-12695266D01*
X11339177Y-12695266D02*
X11358225Y-12685743D01*
X11358225Y-12685743D02*
X11396320Y-12685743D01*
X11396320Y-12685743D02*
X11415368Y-12695266D01*
X11415368Y-12695266D02*
X11424891Y-12714314D01*
X11424891Y-12714314D02*
X11424891Y-12733362D01*
X11424891Y-12733362D02*
X11329653Y-12752409D01*
X11501082Y-12809552D02*
X11520130Y-12819076D01*
X11520130Y-12819076D02*
X11558225Y-12819076D01*
X11558225Y-12819076D02*
X11577272Y-12809552D01*
X11577272Y-12809552D02*
X11586796Y-12790505D01*
X11586796Y-12790505D02*
X11586796Y-12780981D01*
X11586796Y-12780981D02*
X11577272Y-12761933D01*
X11577272Y-12761933D02*
X11558225Y-12752409D01*
X11558225Y-12752409D02*
X11529653Y-12752409D01*
X11529653Y-12752409D02*
X11510606Y-12742886D01*
X11510606Y-12742886D02*
X11501082Y-12723838D01*
X11501082Y-12723838D02*
X11501082Y-12714314D01*
X11501082Y-12714314D02*
X11510606Y-12695266D01*
X11510606Y-12695266D02*
X11529653Y-12685743D01*
X11529653Y-12685743D02*
X11558225Y-12685743D01*
X11558225Y-12685743D02*
X11577272Y-12695266D01*
X11824892Y-12742886D02*
X11977273Y-12742886D01*
X11901082Y-12819076D02*
X11901082Y-12666695D01*
X12215368Y-12638124D02*
X12224892Y-12628600D01*
X12224892Y-12628600D02*
X12243939Y-12619076D01*
X12243939Y-12619076D02*
X12291558Y-12619076D01*
X12291558Y-12619076D02*
X12310606Y-12628600D01*
X12310606Y-12628600D02*
X12320130Y-12638124D01*
X12320130Y-12638124D02*
X12329653Y-12657171D01*
X12329653Y-12657171D02*
X12329653Y-12676219D01*
X12329653Y-12676219D02*
X12320130Y-12704790D01*
X12320130Y-12704790D02*
X12205844Y-12819076D01*
X12205844Y-12819076D02*
X12329653Y-12819076D01*
X12558225Y-12809552D02*
X12577273Y-12819076D01*
X12577273Y-12819076D02*
X12615368Y-12819076D01*
X12615368Y-12819076D02*
X12634415Y-12809552D01*
X12634415Y-12809552D02*
X12643939Y-12790505D01*
X12643939Y-12790505D02*
X12643939Y-12780981D01*
X12643939Y-12780981D02*
X12634415Y-12761933D01*
X12634415Y-12761933D02*
X12615368Y-12752409D01*
X12615368Y-12752409D02*
X12586796Y-12752409D01*
X12586796Y-12752409D02*
X12567749Y-12742886D01*
X12567749Y-12742886D02*
X12558225Y-12723838D01*
X12558225Y-12723838D02*
X12558225Y-12714314D01*
X12558225Y-12714314D02*
X12567749Y-12695266D01*
X12567749Y-12695266D02*
X12586796Y-12685743D01*
X12586796Y-12685743D02*
X12615368Y-12685743D01*
X12615368Y-12685743D02*
X12634415Y-12695266D01*
X12758225Y-12819076D02*
X12739177Y-12809552D01*
X12739177Y-12809552D02*
X12729654Y-12790505D01*
X12729654Y-12790505D02*
X12729654Y-12619076D01*
X12862987Y-12819076D02*
X12843939Y-12809552D01*
X12843939Y-12809552D02*
X12834415Y-12800028D01*
X12834415Y-12800028D02*
X12824892Y-12780981D01*
X12824892Y-12780981D02*
X12824892Y-12723838D01*
X12824892Y-12723838D02*
X12834415Y-12704790D01*
X12834415Y-12704790D02*
X12843939Y-12695266D01*
X12843939Y-12695266D02*
X12862987Y-12685743D01*
X12862987Y-12685743D02*
X12891558Y-12685743D01*
X12891558Y-12685743D02*
X12910606Y-12695266D01*
X12910606Y-12695266D02*
X12920130Y-12704790D01*
X12920130Y-12704790D02*
X12929654Y-12723838D01*
X12929654Y-12723838D02*
X12929654Y-12780981D01*
X12929654Y-12780981D02*
X12920130Y-12800028D01*
X12920130Y-12800028D02*
X12910606Y-12809552D01*
X12910606Y-12809552D02*
X12891558Y-12819076D01*
X12891558Y-12819076D02*
X12862987Y-12819076D01*
X12986796Y-12685743D02*
X13062987Y-12685743D01*
X13015368Y-12619076D02*
X13015368Y-12790505D01*
X13015368Y-12790505D02*
X13024892Y-12809552D01*
X13024892Y-12809552D02*
X13043939Y-12819076D01*
X13043939Y-12819076D02*
X13062987Y-12819076D01*
X13120130Y-12809552D02*
X13139177Y-12819076D01*
X13139177Y-12819076D02*
X13177273Y-12819076D01*
X13177273Y-12819076D02*
X13196320Y-12809552D01*
X13196320Y-12809552D02*
X13205844Y-12790505D01*
X13205844Y-12790505D02*
X13205844Y-12780981D01*
X13205844Y-12780981D02*
X13196320Y-12761933D01*
X13196320Y-12761933D02*
X13177273Y-12752409D01*
X13177273Y-12752409D02*
X13148701Y-12752409D01*
X13148701Y-12752409D02*
X13129654Y-12742886D01*
X13129654Y-12742886D02*
X13120130Y-12723838D01*
X13120130Y-12723838D02*
X13120130Y-12714314D01*
X13120130Y-12714314D02*
X13129654Y-12695266D01*
X13129654Y-12695266D02*
X13148701Y-12685743D01*
X13148701Y-12685743D02*
X13177273Y-12685743D01*
X13177273Y-12685743D02*
X13196320Y-12695266D01*
X13272511Y-12895266D02*
X13282035Y-12885743D01*
X13282035Y-12885743D02*
X13301082Y-12857171D01*
X13301082Y-12857171D02*
X13310606Y-12838124D01*
X13310606Y-12838124D02*
X13320130Y-12809552D01*
X13320130Y-12809552D02*
X13329654Y-12761933D01*
X13329654Y-12761933D02*
X13329654Y-12723838D01*
X13329654Y-12723838D02*
X13320130Y-12676219D01*
X13320130Y-12676219D02*
X13310606Y-12647647D01*
X13310606Y-12647647D02*
X13301082Y-12628600D01*
X13301082Y-12628600D02*
X13282035Y-12600028D01*
X13282035Y-12600028D02*
X13272511Y-12590505D01*
M02*
