G04 #@! TF.GenerationSoftware,KiCad,Pcbnew,9.0.0*
G04 #@! TF.CreationDate,2025-03-29T16:30:24-06:00*
G04 #@! TF.ProjectId,USBCRibbonLite,55534243-5269-4626-926f-6e4c6974652e,rev?*
G04 #@! TF.SameCoordinates,Original*
G04 #@! TF.FileFunction,Legend,Top*
G04 #@! TF.FilePolarity,Positive*
%FSLAX46Y46*%
G04 Gerber Fmt 4.6, Leading zero omitted, Abs format (unit mm)*
G04 Created by KiCad (PCBNEW 9.0.0) date 2025-03-29 16:30:24*
%MOMM*%
%LPD*%
G01*
G04 APERTURE LIST*
G04 Aperture macros list*
%AMRoundRect*
0 Rectangle with rounded corners*
0 $1 Rounding radius*
0 $2 $3 $4 $5 $6 $7 $8 $9 X,Y pos of 4 corners*
0 Add a 4 corners polygon primitive as box body*
4,1,4,$2,$3,$4,$5,$6,$7,$8,$9,$2,$3,0*
0 Add four circle primitives for the rounded corners*
1,1,$1+$1,$2,$3*
1,1,$1+$1,$4,$5*
1,1,$1+$1,$6,$7*
1,1,$1+$1,$8,$9*
0 Add four rect primitives between the rounded corners*
20,1,$1+$1,$2,$3,$4,$5,0*
20,1,$1+$1,$4,$5,$6,$7,0*
20,1,$1+$1,$6,$7,$8,$9,0*
20,1,$1+$1,$8,$9,$2,$3,0*%
G04 Aperture macros list end*
%ADD10C,0.125000*%
%ADD11C,0.120000*%
%ADD12C,0.200000*%
%ADD13C,0.100000*%
%ADD14RoundRect,0.175000X0.175000X0.725000X-0.175000X0.725000X-0.175000X-0.725000X0.175000X-0.725000X0*%
%ADD15RoundRect,0.190000X-0.190000X-0.710000X0.190000X-0.710000X0.190000X0.710000X-0.190000X0.710000X0*%
%ADD16RoundRect,0.200000X-0.200000X-0.700000X0.200000X-0.700000X0.200000X0.700000X-0.200000X0.700000X0*%
%ADD17RoundRect,0.175000X-0.175000X-0.725000X0.175000X-0.725000X0.175000X0.725000X-0.175000X0.725000X0*%
%ADD18RoundRect,0.190000X0.190000X0.710000X-0.190000X0.710000X-0.190000X-0.710000X0.190000X-0.710000X0*%
%ADD19RoundRect,0.200000X0.200000X0.700000X-0.200000X0.700000X-0.200000X-0.700000X0.200000X-0.700000X0*%
%ADD20O,1.100000X1.700000*%
%ADD21RoundRect,0.160000X-0.160000X0.197500X-0.160000X-0.197500X0.160000X-0.197500X0.160000X0.197500X0*%
G04 APERTURE END LIST*
D10*
X72857902Y-114381166D02*
X73091236Y-114381166D01*
X73191236Y-114747833D02*
X72857902Y-114747833D01*
X72857902Y-114747833D02*
X72857902Y-114047833D01*
X72857902Y-114047833D02*
X73191236Y-114047833D01*
X73424569Y-114047833D02*
X73891235Y-114047833D01*
X73891235Y-114047833D02*
X73424569Y-114747833D01*
X73424569Y-114747833D02*
X73891235Y-114747833D01*
X74157902Y-114481166D02*
X74691236Y-114481166D01*
X75024569Y-114747833D02*
X75024569Y-114047833D01*
X75024569Y-114047833D02*
X75191236Y-114047833D01*
X75191236Y-114047833D02*
X75291236Y-114081166D01*
X75291236Y-114081166D02*
X75357903Y-114147833D01*
X75357903Y-114147833D02*
X75391236Y-114214500D01*
X75391236Y-114214500D02*
X75424569Y-114347833D01*
X75424569Y-114347833D02*
X75424569Y-114447833D01*
X75424569Y-114447833D02*
X75391236Y-114581166D01*
X75391236Y-114581166D02*
X75357903Y-114647833D01*
X75357903Y-114647833D02*
X75291236Y-114714500D01*
X75291236Y-114714500D02*
X75191236Y-114747833D01*
X75191236Y-114747833D02*
X75024569Y-114747833D01*
X75691236Y-114714500D02*
X75791236Y-114747833D01*
X75791236Y-114747833D02*
X75957903Y-114747833D01*
X75957903Y-114747833D02*
X76024569Y-114714500D01*
X76024569Y-114714500D02*
X76057903Y-114681166D01*
X76057903Y-114681166D02*
X76091236Y-114614500D01*
X76091236Y-114614500D02*
X76091236Y-114547833D01*
X76091236Y-114547833D02*
X76057903Y-114481166D01*
X76057903Y-114481166D02*
X76024569Y-114447833D01*
X76024569Y-114447833D02*
X75957903Y-114414500D01*
X75957903Y-114414500D02*
X75824569Y-114381166D01*
X75824569Y-114381166D02*
X75757903Y-114347833D01*
X75757903Y-114347833D02*
X75724569Y-114314500D01*
X75724569Y-114314500D02*
X75691236Y-114247833D01*
X75691236Y-114247833D02*
X75691236Y-114181166D01*
X75691236Y-114181166D02*
X75724569Y-114114500D01*
X75724569Y-114114500D02*
X75757903Y-114081166D01*
X75757903Y-114081166D02*
X75824569Y-114047833D01*
X75824569Y-114047833D02*
X75991236Y-114047833D01*
X75991236Y-114047833D02*
X76091236Y-114081166D01*
X76724570Y-114747833D02*
X76391236Y-114747833D01*
X76391236Y-114747833D02*
X76391236Y-114047833D01*
X76957903Y-114481166D02*
X77491237Y-114481166D01*
X77824570Y-114047833D02*
X77824570Y-114614500D01*
X77824570Y-114614500D02*
X77857904Y-114681166D01*
X77857904Y-114681166D02*
X77891237Y-114714500D01*
X77891237Y-114714500D02*
X77957904Y-114747833D01*
X77957904Y-114747833D02*
X78091237Y-114747833D01*
X78091237Y-114747833D02*
X78157904Y-114714500D01*
X78157904Y-114714500D02*
X78191237Y-114681166D01*
X78191237Y-114681166D02*
X78224570Y-114614500D01*
X78224570Y-114614500D02*
X78224570Y-114047833D01*
X78524570Y-114714500D02*
X78624570Y-114747833D01*
X78624570Y-114747833D02*
X78791237Y-114747833D01*
X78791237Y-114747833D02*
X78857903Y-114714500D01*
X78857903Y-114714500D02*
X78891237Y-114681166D01*
X78891237Y-114681166D02*
X78924570Y-114614500D01*
X78924570Y-114614500D02*
X78924570Y-114547833D01*
X78924570Y-114547833D02*
X78891237Y-114481166D01*
X78891237Y-114481166D02*
X78857903Y-114447833D01*
X78857903Y-114447833D02*
X78791237Y-114414500D01*
X78791237Y-114414500D02*
X78657903Y-114381166D01*
X78657903Y-114381166D02*
X78591237Y-114347833D01*
X78591237Y-114347833D02*
X78557903Y-114314500D01*
X78557903Y-114314500D02*
X78524570Y-114247833D01*
X78524570Y-114247833D02*
X78524570Y-114181166D01*
X78524570Y-114181166D02*
X78557903Y-114114500D01*
X78557903Y-114114500D02*
X78591237Y-114081166D01*
X78591237Y-114081166D02*
X78657903Y-114047833D01*
X78657903Y-114047833D02*
X78824570Y-114047833D01*
X78824570Y-114047833D02*
X78924570Y-114081166D01*
X79457904Y-114381166D02*
X79557904Y-114414500D01*
X79557904Y-114414500D02*
X79591237Y-114447833D01*
X79591237Y-114447833D02*
X79624570Y-114514500D01*
X79624570Y-114514500D02*
X79624570Y-114614500D01*
X79624570Y-114614500D02*
X79591237Y-114681166D01*
X79591237Y-114681166D02*
X79557904Y-114714500D01*
X79557904Y-114714500D02*
X79491237Y-114747833D01*
X79491237Y-114747833D02*
X79224570Y-114747833D01*
X79224570Y-114747833D02*
X79224570Y-114047833D01*
X79224570Y-114047833D02*
X79457904Y-114047833D01*
X79457904Y-114047833D02*
X79524570Y-114081166D01*
X79524570Y-114081166D02*
X79557904Y-114114500D01*
X79557904Y-114114500D02*
X79591237Y-114181166D01*
X79591237Y-114181166D02*
X79591237Y-114247833D01*
X79591237Y-114247833D02*
X79557904Y-114314500D01*
X79557904Y-114314500D02*
X79524570Y-114347833D01*
X79524570Y-114347833D02*
X79457904Y-114381166D01*
X79457904Y-114381166D02*
X79224570Y-114381166D01*
X80324570Y-114681166D02*
X80291237Y-114714500D01*
X80291237Y-114714500D02*
X80191237Y-114747833D01*
X80191237Y-114747833D02*
X80124570Y-114747833D01*
X80124570Y-114747833D02*
X80024570Y-114714500D01*
X80024570Y-114714500D02*
X79957904Y-114647833D01*
X79957904Y-114647833D02*
X79924570Y-114581166D01*
X79924570Y-114581166D02*
X79891237Y-114447833D01*
X79891237Y-114447833D02*
X79891237Y-114347833D01*
X79891237Y-114347833D02*
X79924570Y-114214500D01*
X79924570Y-114214500D02*
X79957904Y-114147833D01*
X79957904Y-114147833D02*
X80024570Y-114081166D01*
X80024570Y-114081166D02*
X80124570Y-114047833D01*
X80124570Y-114047833D02*
X80191237Y-114047833D01*
X80191237Y-114047833D02*
X80291237Y-114081166D01*
X80291237Y-114081166D02*
X80324570Y-114114500D01*
D11*
G04 #@! TO.C,J1*
X71959000Y-113440000D02*
X71959000Y-115140000D01*
X81299000Y-113440000D02*
X81299000Y-115140000D01*
G04 #@! TO.C,R1*
X70210000Y-114152379D02*
X70210000Y-114487621D01*
X70970000Y-114152379D02*
X70970000Y-114487621D01*
G04 #@! TO.C,R2*
X70200000Y-116392379D02*
X70200000Y-116727621D01*
X70960000Y-116392379D02*
X70960000Y-116727621D01*
G04 #@! TD*
%LPC*%
D12*
X77234000Y-118515000D02*
X79084000Y-118515000D01*
X79084000Y-119365000D01*
X77234000Y-119365000D01*
X77234000Y-118515000D01*
G36*
X77234000Y-118515000D02*
G01*
X79084000Y-118515000D01*
X79084000Y-119365000D01*
X77234000Y-119365000D01*
X77234000Y-118515000D01*
G37*
X75684000Y-118865000D02*
X76534000Y-118865000D01*
X76534000Y-120365000D01*
X75684000Y-120365000D01*
X75684000Y-118865000D01*
G36*
X75684000Y-118865000D02*
G01*
X76534000Y-118865000D01*
X76534000Y-120365000D01*
X75684000Y-120365000D01*
X75684000Y-118865000D01*
G37*
D13*
X68309000Y-114190000D02*
X69809000Y-114190000D01*
X69809000Y-117190000D01*
X68309000Y-117190000D01*
X68309000Y-114190000D01*
G36*
X68309000Y-114190000D02*
G01*
X69809000Y-114190000D01*
X69809000Y-117190000D01*
X68309000Y-117190000D01*
X68309000Y-114190000D01*
G37*
D14*
G04 #@! TO.C,J1*
X77129000Y-116270000D03*
D15*
X75109000Y-116270000D03*
D16*
X73879000Y-116270000D03*
D17*
X76129000Y-116270000D03*
D18*
X78149000Y-116270000D03*
D19*
X79379000Y-116270000D03*
D20*
X80949000Y-116190000D03*
X72309000Y-116190000D03*
G04 #@! TD*
D21*
G04 #@! TO.C,R1*
X70590000Y-113722500D03*
X70590000Y-114917500D03*
G04 #@! TD*
G04 #@! TO.C,R2*
X70580000Y-115962500D03*
X70580000Y-117157500D03*
G04 #@! TD*
%LPD*%
M02*
